# xmcd CD database file
#
# Track frame offsets:
#	150
#	19938
#	40869
#	58650
#	78775
#	97982
#	114105
#	130847
#	154708
#	175668
#
# Disc length: 2621 seconds
#
# Revision: 1
# Processed by: cddbd v1.4PL0 Copyright (c) Steve Scherf et al.
# Submitted via: CDex 1.50Beta3
#
DISCID=6b0a3b0a
DTITLE=Luis Miguel del Amargue - Luisa María
DYEAR=1999
DGENRE=Merengue
TTITLE0=No te puedo perdonar
TTITLE1=Me muero por ella
TTITLE2=Vivir de engaño
TTITLE3=Te voy a querer
TTITLE4=El chivo (Merengue)
TTITLE5=Tus 15 años
TTITLE6=Mi destino
TTITLE7=Luisa María
TTITLE8=Estoy herido
TTITLE9=Vivo enamorado
EXTD=YEAR: 1999
EXTT0=
EXTT1=
EXTT2=
EXTT3=
EXTT4=
EXTT5=
EXTT6=
EXTT7=
EXTT8=
EXTT9=
PLAYORDER=
